<svg xmlns="http://www.w3.org/2000/svg" viewBox="25.287107467651367 24.6560001373291 461.9193744659424 470.12128257751465"><g class="" transform="translate(0,0)" style=""><path d="M257.563 25.156c353.16 276.87 16.918 408.895-87.875 293.25l-40.75 37.125 50.812 50.345c217.562 181.363 524.73-252.058 77.813-380.72zM110.75 364.28c-5.525 1.065-8.975 2.957-11.313 5.25-1.956 1.922-3.248 4.556-4.25 7.564l55.188 52.844c5.468-1.008 9.264-2.796 11.28-4.688 1.997-1.872 3.095-3.864 3.095-7.53l-54-53.44zm-24.72 30.314L30.407 445.28c-16.737 27 14.693 61.198 51.093 44.66l51.53-50.282-47-45.062z" fill="#000000" fill-opacity="1" transform="translate(0, 0) scale(1, 1) rotate(360, 256, 256) skewX(0) skewY(0)"/></g></svg>